#N canvas -8 -8 1024 686 10;
#X obj 29 72 bng 15 250 50 0 empty empty empty 17 7 0 10 -262144 -1
-1;
#X obj 29 92 openpanel;
#X obj 29 136 soundfiler;
#X obj 29 158 expr 44100 / $f1;
#X obj 29 180 phasor~;
#X obj 29 202 *~;
#X floatatom 138 137 5 0 0 0 - - -, f 5;
#X obj 138 156 s samplesAwoo;
#X obj 138 184 r samplesAwoo;
#N canvas 0 50 450 250 (subpatch) 0;
#X array pianoLefty 398663 float 2;
#X coords 0 1 398663 -1 200 140 1;
#X restore 247 45 graph;
#N canvas 0 50 450 250 (subpatch) 0;
#X array pianoRighty 398663 float 2;
#X coords 0 1 398663 -1 200 140 1;
#X restore 247 214 graph;
#X obj 29 224 tabread4~ pianoLefty;
#X obj 28 266 tabread4~ pianoRighty;
#X obj 176 283 *~;
#X obj 174 245 *~;
#X obj 777 555 dac~ 1 2;
#X msg 29 114 read -resize \$1 pianoLefty pianoRighty;
#X obj 229 152 vsl 15 128 0 1 0 0 empty empty empty 0 -9 0 10 -262144
-1 -1 3100 1;
#X obj 29 403 bng 15 250 50 0 empty empty empty 17 7 0 10 -262144 -1
-1;
#X obj 29 423 openpanel;
#X obj 29 467 soundfiler;
#X obj 29 489 expr 44100 / $f1;
#X obj 29 511 phasor~;
#X obj 29 533 *~;
#X floatatom 138 468 5 0 0 0 - - -, f 5;
#N canvas 0 50 450 250 (subpatch) 0;
#X array guitarLefty 460013 float 2;
#X coords 0 1 460013 -1 200 140 1;
#X restore 247 376 graph;
#N canvas 0 50 450 250 (subpatch) 0;
#X array guitarRighty 460013 float 2;
#X coords 0 1 460013 -1 200 140 1;
#X restore 247 545 graph;
#X obj 176 614 *~;
#X obj 174 576 *~;
#X obj 178 655 dac~ 1 2;
#X obj 229 483 vsl 15 128 0 1 0 0 empty empty empty 0 -9 0 10 -262144
-1 -1 3100 1;
#X msg 29 445 read -resize \$1 guitarLefty guitarRighty;
#X obj 138 487 s samplesAwoo2;
#X obj 138 515 r samplesAwoo2;
#X obj 29 555 tabread4~ guitarLefty;
#X obj 27 597 tabread4~ guitarRighty;
#X obj 777 440 morphine~;
#X obj 831 346 hsl 128 15 0 1 0 0 empty empty empty -2 -8 0 10 -262144
-1 -1 0 1;
#X connect 0 0 1 0;
#X connect 1 0 16 0;
#X connect 2 0 3 0;
#X connect 2 0 6 0;
#X connect 3 0 4 0;
#X connect 4 0 5 0;
#X connect 5 0 11 0;
#X connect 5 0 12 0;
#X connect 6 0 7 0;
#X connect 8 0 5 1;
#X connect 11 0 14 0;
#X connect 12 0 13 0;
#X connect 13 0 36 0;
#X connect 14 0 36 0;
#X connect 16 0 2 0;
#X connect 17 0 14 1;
#X connect 17 0 13 1;
#X connect 18 0 19 0;
#X connect 19 0 31 0;
#X connect 20 0 21 0;
#X connect 20 0 24 0;
#X connect 21 0 22 0;
#X connect 22 0 23 0;
#X connect 23 0 34 0;
#X connect 23 0 35 0;
#X connect 24 0 32 0;
#X connect 27 0 36 1;
#X connect 28 0 36 1;
#X connect 30 0 28 1;
#X connect 30 0 27 1;
#X connect 31 0 20 0;
#X connect 33 0 23 1;
#X connect 34 0 28 0;
#X connect 35 0 27 0;
#X connect 36 0 15 0;
#X connect 36 0 15 1;
#X connect 37 0 36 2;
