#N canvas 749 188 450 300 10;
#X obj 39 38 bng 15 250 50 0 empty empty empty 17 7 0 10 -262144 -1
-1;
#N canvas 1 63 450 300 loadMIDIfile 0;
#X obj 20 30 inlet;
#X text 20 12 Open;
#X obj 69 30 inlet;
#X text 70 12 Play;
#X msg 20 52 read;
#X obj 20 74 seq;
#X msg 69 57 start 65536;
#X obj 111 91 bng 15 250 50 0 empty empty empty 17 7 0 10 -262144 -1
-1;
#X text 132 89 bang when done;
#X obj 111 111 outlet;
#X obj 171 111 s finished;
#X obj 20 118 unpack;
#X obj 20 140 stripnote;
#X floatatom 20 162 5 0 100 0 - - -, f 5;
#X obj 20 181 outlet;
#X text 74 182 MIDI pitch out;
#X obj 20 96 midiparse;
#X connect 0 0 4 0;
#X connect 2 0 6 0;
#X connect 4 0 5 0;
#X connect 5 0 16 0;
#X connect 5 1 7 0;
#X connect 6 0 5 0;
#X connect 7 0 9 0;
#X connect 7 0 10 0;
#X connect 11 0 12 0;
#X connect 11 1 12 1;
#X connect 12 0 13 0;
#X connect 13 0 14 0;
#X connect 16 0 11 0;
#X restore 39 58 pd loadMIDIfile;
#X obj 141 38 bng 15 250 50 0 empty empty empty 17 7 0 10 -262144 -1
-1;
#X obj 141 82 bng 15 250 50 0 empty empty empty 17 7 0 10 -262144 -1
-1;
#X text 161 82 bang when done;
#N canvas 802 252 450 300 markovAnalysis 0;
#X text 31 12 MIDI pitch in;
#X obj 30 28 inlet;
#X msg 30 75 merge \$1 \$2;
#X obj 143 51 r resetMatrix;
#X msg 143 73 clear;
#X obj 30 97 coll pitchMatrix;
#C restore;
#N canvas 810 332 450 300 pair 0;
#X text 42 9 float in;
#X obj 43 28 inlet;
#X obj 43 167 outlet;
#X text 95 168 output paird numbers;
#X obj 43 70 unpack f f f;
#X obj 43 92 pack;
#X obj 43 114 sprintf %i%i;
#X obj 43 136 pack;
#N canvas 783 338 450 300 zl-stream 0;
#X obj 63 31 inlet;
#X obj 63 53 t f f b;
#X obj 91 80 f;
#X obj 91 102 t f b f;
#X obj 92 129 f;
#X obj 63 164 pack f f f;
#X msg 63 186 \$2 \$3 \$1;
#X obj 63 208 outlet;
#X connect 0 0 1 0;
#X connect 1 0 5 0;
#X connect 1 1 2 1;
#X connect 1 2 2 0;
#X connect 2 0 3 0;
#X connect 3 0 4 1;
#X connect 3 1 4 0;
#X connect 3 2 5 2;
#X connect 4 0 5 1;
#X connect 5 0 6 0;
#X connect 6 0 7 0;
#X restore 43 49 pd zl-stream;
#X connect 1 0 8 0;
#X connect 4 0 5 0;
#X connect 4 1 5 1;
#X connect 4 2 7 1;
#X connect 5 0 6 0;
#X connect 6 0 7 0;
#X connect 7 0 2 0;
#X connect 8 0 4 0;
#X restore 30 51 pd pair;
#X connect 1 0 6 0;
#X connect 2 0 5 0;
#X connect 3 0 4 0;
#X connect 4 0 5 0;
#X connect 6 0 2 0;
#X restore 39 100 pd markovAnalysis;
#X obj 38 138 tgl 15 0 empty empty empty 17 7 0 10 -262144 -1 -1 0
1;
#X obj 38 158 metro 150;
#X obj 38 183 bng 15 250 50 0 empty empty empty 17 7 0 10 -262144 -1
-1;
#N canvas 812 246 450 300 pitchGen 1;
#X obj 192 274 outlet;
#X obj 54 28 inlet;
#X obj 110 28 inlet;
#X obj 158 28 r finished;
#X text 59 6 Bang in;
#X text 114 6 Choose start pitch;
#X obj 54 51 bng 15 250 50 0 empty empty empty 17 7 0 10 -262144 -1
-1;
#X msg 110 50 next;
#X obj 110 72 coll pitchMatrix;
#C restore;
#X floatatom 110 94 5 0 7000 0 - - -, f 5;
#X obj 54 93 t f f;
#X obj 54 115 coll pitchMatrix;
#C restore;
#X obj 54 137 length;
#X obj 54 159 t b f;
#X obj 54 181 random;
#X obj 54 203 + 1;
#X obj 192 187 pack;
#X msg 192 209 nth \$2 \$1;
#X obj 54 70 f;
#X floatatom 192 255 5 0 100 0 - - -, f 5;
#X obj 192 229 coll pitchMatrix;
#C restore;
#X floatatom 9 51 5 0 7000 0 - - -, f 5;
#X obj 186 103 bng 15 250 50 0 empty empty empty 17 7 0 10 -262144
-1 -1;
#X msg 82 216 \$2;
#X obj 82 238 % 100;
#X obj 82 260 pack;
#X obj 82 282 sprintf %i%i;
#X connect 1 0 6 0;
#X connect 2 0 7 0;
#X connect 3 0 7 0;
#X connect 6 0 18 0;
#X connect 7 0 8 0;
#X connect 8 0 9 0;
#X connect 9 0 18 1;
#X connect 10 0 11 0;
#X connect 10 1 16 1;
#X connect 11 0 12 0;
#X connect 12 0 13 0;
#X connect 13 0 14 0;
#X connect 13 1 14 1;
#X connect 14 0 15 0;
#X connect 15 0 16 0;
#X connect 16 0 17 0;
#X connect 16 0 23 0;
#X connect 17 0 20 0;
#X connect 18 0 10 0;
#X connect 19 0 0 0;
#X connect 19 0 18 1;
#X connect 20 0 19 0;
#X connect 20 0 25 1;
#X connect 21 0 18 1;
#X connect 22 0 9 0;
#X connect 23 0 24 0;
#X connect 24 0 25 0;
#X connect 25 0 26 0;
#X connect 26 0 21 0;
#X restore 38 203 pd pitchGen;
#X floatatom 38 225 5 0 100 0 - - -, f 5;
#X obj 38 244 makenote 100 500;
#X obj 38 272 noteout;
#X obj 112 181 bng 15 250 50 0 empty empty empty 17 7 0 10 -262144
-1 -1;
#X text 130 181 New Start Pitch;
#X obj 235 37 bng 15 250 50 0 empty empty empty 17 7 0 10 -262144 -1
-1;
#X text 255 37 Reset Matrix;
#X obj 235 57 s resetMatrix;
#X text 58 37 Load MIDI;
#X text 160 37 Play MIDI;
#X connect 0 0 1 0;
#X connect 1 0 5 0;
#X connect 1 1 3 0;
#X connect 2 0 1 1;
#X connect 6 0 7 0;
#X connect 7 0 8 0;
#X connect 8 0 9 0;
#X connect 9 0 10 0;
#X connect 10 0 11 0;
#X connect 11 0 12 0;
#X connect 11 1 12 1;
#X connect 13 0 9 1;
#X connect 15 0 17 0;
